<svg xmlns="http://www.w3.org/2000/svg" width="24" height="28"><path d="M16 23.438c-.156-.906-.75-4.031-2.188-7.781-.016 0-.047.016-.063.016 0 0-6.078 2.125-8.047 6.406-.094-.078-.234-.172-.234-.172a10.297 10.297 0 0 0 6.531 2.344c1.422 0 2.766-.297 4-.812zm-2.891-9.485a29.025 29.025 0 0 0-.828-1.734C7 13.797 1.937 13.672 1.765 13.672c-.016.109-.016.219-.016.328 0 2.625 1 5.031 2.625 6.844 2.797-4.984 8.328-6.766 8.328-6.766.141-.047.281-.078.406-.125zm-1.671-3.312a61.656 61.656 0 0 0-3.813-5.906 10.267 10.267 0 0 0-5.656 7.156c.266 0 4.547.047 9.469-1.25zm10.687 4.984c-.219-.063-3.078-.969-6.391-.453 1.344 3.703 1.891 6.719 2 7.328a10.293 10.293 0 0 0 4.391-6.875zM9.547 4.047c-.016 0-.016 0-.031.016 0 0 .016-.016.031-.016zm9.219 2.265a10.17 10.17 0 0 0-9.188-2.265c.156.203 2.094 2.75 3.844 5.969 3.859-1.437 5.313-3.656 5.344-3.703zm3.484 7.579a10.273 10.273 0 0 0-2.328-6.406c-.031.031-1.672 2.406-5.719 4.062.234.484.469.984.688 1.484.078.172.141.359.219.531 3.531-.453 7.016.313 7.141.328zM24 14c0 6.625-5.375 12-12 12S0 20.625 0 14 5.375 2 12 2s12 5.375 12 12z" fill="#fff"/></svg>